<svg width="1440" height="1230" viewBox="0 0 1440 1230" fill="none" xmlns="http://www.w3.org/2000/svg">
<path fill-rule="evenodd" clip-rule="evenodd" d="M1086.86 847.182C1086.86 847.182 1087.71 379.892 1086.75 380.888C1083.41 349.798 1074.02 328.355 1038.16 328.355H969.179C900.199 328.355 900.199 328.355 900.199 267.051V261.305C900.199 227.447 869.315 200 831.218 200H762.238C724.141 200 693.257 227.447 693.257 261.305V331.228C693.257 365.086 724.141 392.533 762.238 392.533L867.06 395.406C887.001 395.406 899.73 408.336 899.73 426.058C899.73 443.78 887.001 456.711 867.06 456.711L727.255 453.838C589.801 453.838 591.765 453.838 589.801 392.533V386.787C589.801 352.929 558.917 325.482 520.82 325.482H451.84C413.743 325.482 382.86 352.929 382.86 386.787V456.711C382.86 490.568 413.743 518.015 451.84 518.015H766.386C786.327 518.015 802.492 532.382 802.492 550.104C802.492 567.826 786.327 582.193 766.386 582.193H268.981C230.884 582.193 200 609.64 200 643.498V713.421C200 747.279 230.884 774.726 268.981 774.726H337.961C376.058 774.726 406.941 747.279 406.941 713.421V707.675C406.941 646.371 406.941 646.371 475.921 646.371H766.386C786.327 646.371 802.492 660.737 802.492 678.459C802.492 696.181 786.327 710.548 766.386 710.548H530.389C492.292 710.548 461.409 737.995 461.409 771.853V841.777C461.409 875.634 492.292 903.081 530.389 903.081H599.369C637.466 903.081 668.35 875.634 668.35 841.776V836.03C668.35 774.726 668.35 774.726 727.255 774.726L934.196 771.853C954.138 771.853 970.303 786.219 970.303 803.941C970.303 821.664 954.138 836.03 934.196 836.03L796.236 837.467C758.139 837.467 727.255 864.914 727.255 898.772V968.695C727.255 1002.55 758.139 1030 796.236 1030H865.216C903.313 1030 934.196 1002.55 934.196 968.695V962.949C934.196 903.081 934.196 903.081 1018.08 903.081C1086.86 903.081 1086.86 847.182 1086.86 847.182Z" fill="#10B981" fill-opacity="0.3" stroke="#10B981" stroke-width="20"/>
<path d="M829.492 980.2C820.303 980.2 812.315 979.042 805.529 976.727C798.744 974.318 793.089 970.984 788.565 966.723C784.041 962.462 780.648 957.461 778.386 951.718C776.265 945.975 775.205 939.677 775.205 932.822C775.205 922.819 777.396 914.205 781.779 906.98C786.161 899.755 792.452 894.244 800.652 890.446C808.993 886.649 818.889 884.75 830.34 884.75C842.074 884.75 851.97 886.741 860.028 890.724C868.086 894.615 874.165 900.126 878.265 907.258C882.506 914.39 884.627 922.773 884.627 932.406C884.627 939.26 883.496 945.605 881.234 951.44C878.972 957.275 875.509 962.37 870.843 966.723C866.319 970.984 860.594 974.318 853.667 976.727C846.739 979.042 838.681 980.2 829.492 980.2ZM829.916 969.085C835.571 969.085 840.519 968.298 844.76 966.723C849.001 965.148 852.606 962.833 855.575 959.776C858.544 956.627 860.735 952.829 862.149 948.383C863.704 943.845 864.481 938.704 864.481 932.961C864.481 925.273 863.209 918.651 860.664 913.093C858.12 907.536 854.232 903.275 849.001 900.311C843.912 897.347 837.55 895.865 829.916 895.865C822.423 895.865 816.062 897.301 810.831 900.172C805.741 903.043 801.854 907.212 799.168 912.676C796.482 918.141 795.139 924.81 795.139 932.683C795.139 938.519 795.845 943.706 797.259 948.244C798.814 952.69 801.076 956.488 804.045 959.637C807.014 962.694 810.619 965.056 814.86 966.723C819.242 968.298 824.261 969.085 829.916 969.085Z" fill="#10B981"/>
<path d="M830.34 884.25C842.126 884.25 852.102 886.25 860.246 890.274L861.003 890.647C868.767 894.553 874.671 900.004 878.695 907.002L879.091 907.683C883.12 914.754 885.127 923 885.127 932.405C885.127 939.315 883.987 945.723 881.7 951.621C879.41 957.528 875.904 962.685 871.185 967.089C866.601 971.405 860.812 974.772 853.831 977.199L853.825 977.201C846.836 979.538 838.722 980.7 829.492 980.7C820.263 980.7 812.218 979.538 805.368 977.2L805.362 977.198C798.521 974.77 792.803 971.402 788.222 967.087C783.645 962.776 780.21 957.713 777.921 951.901L777.917 951.891C775.774 946.086 774.705 939.728 774.705 932.822C774.705 922.744 776.914 914.037 781.352 906.721C785.789 899.405 792.159 893.829 800.442 889.993L800.445 889.991C808.865 886.158 818.835 884.25 830.34 884.25Z" stroke="#10B981"/>
<path d="M564.807 851.55C555.618 851.55 547.631 850.409 540.845 848.127C534.059 845.754 528.404 842.468 523.88 838.269C519.356 834.07 515.963 829.141 513.701 823.481C511.581 817.822 510.521 811.614 510.521 804.859C510.521 795.001 512.712 786.512 517.094 779.392C521.477 772.272 527.768 766.84 535.967 763.098C544.308 759.355 554.204 757.484 565.656 757.484C577.389 757.484 587.285 759.446 595.344 763.371C603.402 767.205 609.481 772.637 613.581 779.665C617.822 786.694 619.942 794.955 619.942 804.449C619.942 811.204 618.811 817.456 616.549 823.207C614.288 828.958 610.824 833.979 606.159 838.269C601.635 842.468 595.909 845.754 588.982 848.127C582.055 850.409 573.997 851.55 564.807 851.55ZM565.231 840.597C570.886 840.597 575.834 839.821 580.076 838.269C584.317 836.717 587.922 834.435 590.89 831.423C593.859 828.319 596.051 824.576 597.464 820.195C599.019 815.722 599.797 810.656 599.797 804.996C599.797 797.42 598.525 790.893 595.98 785.416C593.435 779.939 589.547 775.74 584.317 772.819C579.227 769.898 572.866 768.438 565.231 768.438C557.739 768.438 551.377 769.853 546.146 772.682C541.057 775.512 537.169 779.62 534.483 785.005C531.797 790.391 530.454 796.963 530.454 804.722C530.454 810.473 531.161 815.585 532.575 820.058C534.13 824.44 536.392 828.182 539.36 831.286C542.329 834.298 545.934 836.626 550.175 838.269C554.558 839.821 559.577 840.597 565.231 840.597Z" fill="#10B981"/>
<path d="M565.655 756.984C577.441 756.984 587.415 758.955 595.559 762.92L596.315 763.287C604.079 767.136 609.983 772.509 614.009 779.408L614.405 780.078C618.435 787.049 620.442 795.178 620.442 804.449C620.442 811.26 619.302 817.576 617.015 823.39C614.724 829.213 611.217 834.297 606.497 838.637C601.914 842.891 596.124 846.208 589.144 848.6L589.139 848.602C582.15 850.904 574.037 852.05 564.808 852.05C555.579 852.05 547.535 850.904 540.686 848.601L540.68 848.599C533.839 846.207 528.122 842.888 523.54 838.635C518.963 834.386 515.527 829.396 513.237 823.666L513.233 823.657C511.09 817.935 510.021 811.667 510.021 804.86C510.021 794.925 512.23 786.341 516.669 779.129C521.108 771.918 527.478 766.423 535.76 762.643L535.763 762.641C544.182 758.863 554.151 756.984 565.655 756.984Z" stroke="#10B981"/>
<path d="M304.563 724.283C295.374 724.283 287.387 723.125 280.601 720.81C273.815 718.401 268.16 715.067 263.636 710.806C259.112 706.545 255.719 701.544 253.457 695.801C251.337 690.058 250.276 683.76 250.276 676.905C250.276 666.902 252.468 658.288 256.85 651.063C261.233 643.838 267.524 638.327 275.723 634.53C284.064 630.732 293.96 628.833 305.411 628.833C317.145 628.833 327.041 630.825 335.1 634.807C343.158 638.698 349.237 644.209 353.337 651.341C357.578 658.473 359.698 666.856 359.698 676.489C359.698 683.343 358.567 689.688 356.305 695.523C354.043 701.358 350.58 706.453 345.915 710.806C341.391 715.067 335.665 718.401 328.738 720.81C321.811 723.125 313.752 724.283 304.563 724.283ZM304.987 713.168C310.642 713.168 315.59 712.381 319.831 710.806C324.073 709.232 327.678 706.916 330.646 703.859C333.615 700.71 335.806 696.912 337.22 692.466C338.775 687.928 339.553 682.787 339.553 677.044C339.553 669.357 338.28 662.734 335.736 657.176C333.191 651.619 329.303 647.358 324.073 644.394C318.983 641.43 312.621 639.948 304.987 639.948C297.495 639.948 291.133 641.384 285.902 644.255C280.813 647.127 276.925 651.295 274.239 656.76C271.553 662.224 270.21 668.893 270.21 676.767C270.21 682.602 270.917 687.789 272.33 692.328C273.885 696.774 276.147 700.571 279.116 703.72C282.085 706.777 285.69 709.139 289.931 710.806C294.314 712.381 299.332 713.168 304.987 713.168Z" fill="#10B981"/>
<path d="M305.411 628.333C317.198 628.333 327.173 630.333 335.317 634.358L336.074 634.731C343.838 638.636 349.742 644.087 353.767 651.085L354.162 651.766C358.192 658.837 360.198 667.083 360.198 676.488C360.198 683.399 359.058 689.806 356.771 695.704C354.482 701.611 350.975 706.768 346.256 711.172C341.673 715.488 335.883 718.855 328.902 721.282L328.896 721.284C321.907 723.621 313.793 724.783 304.563 724.783C295.334 724.783 287.29 723.621 280.439 721.283L280.434 721.281C273.593 718.854 267.875 715.485 263.293 711.17C258.716 706.859 255.281 701.796 252.992 695.984L252.988 695.974C250.845 690.169 249.776 683.812 249.776 676.905C249.776 666.827 251.985 658.12 256.423 650.804C260.861 643.488 267.231 637.913 275.514 634.076L275.517 634.074C283.937 630.241 293.906 628.333 305.411 628.333Z" stroke="#10B981"/>
<path d="M487.917 468.366C478.728 468.366 470.74 467.208 463.954 464.893C457.168 462.485 451.513 459.15 446.99 454.889C442.466 450.629 439.073 445.627 436.811 439.884C434.69 434.141 433.63 427.843 433.63 420.989C433.63 410.985 435.821 402.371 440.204 395.146C444.586 387.922 450.877 382.41 459.077 378.613C467.418 374.815 477.314 372.916 488.765 372.916C500.499 372.916 510.395 374.908 518.453 378.891C526.511 382.781 532.59 388.292 536.69 395.424C540.931 402.556 543.052 410.939 543.052 420.572C543.052 427.426 541.921 433.771 539.659 439.606C537.397 445.442 533.933 450.536 529.268 454.889C524.744 459.15 519.019 462.485 512.091 464.893C505.164 467.208 497.106 468.366 487.917 468.366ZM488.341 457.251C493.996 457.251 498.944 456.464 503.185 454.889C507.426 453.315 511.031 450.999 514 447.942C516.969 444.793 519.16 440.996 520.574 436.55C522.129 432.011 522.906 426.87 522.906 421.128C522.906 413.44 521.634 406.817 519.089 401.259C516.545 395.702 512.657 391.441 507.426 388.477C502.337 385.513 495.975 384.031 488.341 384.031C480.848 384.031 474.486 385.467 469.256 388.338C464.166 391.21 460.279 395.378 457.592 400.843C454.906 406.308 453.563 412.977 453.563 420.85C453.563 426.685 454.27 431.872 455.684 436.411C457.239 440.857 459.501 444.654 462.47 447.804C465.439 450.86 469.044 453.222 473.285 454.889C477.667 456.464 482.686 457.251 488.341 457.251Z" fill="#10B981"/>
<path d="M488.765 372.416C500.551 372.416 510.527 374.416 518.671 378.441L519.428 378.814C527.191 382.719 533.096 388.17 537.12 395.168L537.516 395.849C541.545 402.92 543.552 411.167 543.552 420.572C543.552 427.482 542.411 433.889 540.125 439.787C537.835 445.694 534.329 450.851 529.609 455.255C525.026 459.571 519.237 462.939 512.256 465.365L512.25 465.367C505.261 467.704 497.147 468.866 487.917 468.866C478.688 468.866 470.643 467.704 463.793 465.366L463.787 465.365C456.946 462.937 451.228 459.568 446.646 455.253C442.07 450.942 438.635 445.879 436.346 440.068L436.342 440.057C434.199 434.253 433.13 427.895 433.13 420.989C433.13 410.911 435.338 402.203 439.776 394.887C444.214 387.571 450.584 381.996 458.867 378.159L458.87 378.157C467.29 374.324 477.26 372.416 488.765 372.416Z" stroke="#10B981"/>
<path d="M796.961 342.484C787.771 342.484 779.784 341.326 772.998 339.01C766.212 336.602 760.557 333.268 756.033 329.007C751.51 324.746 748.117 319.744 745.855 314.002C743.734 308.259 742.674 301.96 742.674 295.106C742.674 285.103 744.865 276.488 749.248 269.264C753.63 262.039 759.921 256.528 768.121 252.73C776.462 248.933 786.358 247.034 797.809 247.034C809.543 247.034 819.439 249.025 827.497 253.008C835.555 256.898 841.634 262.409 845.734 269.542C849.975 276.674 852.096 285.056 852.096 294.689C852.096 301.543 850.965 307.888 848.703 313.724C846.441 319.559 842.977 324.653 838.312 329.007C833.788 333.268 828.062 336.602 821.135 339.01C814.208 341.326 806.15 342.484 796.961 342.484ZM797.385 331.369C803.04 331.369 807.988 330.581 812.229 329.007C816.47 327.432 820.075 325.117 823.044 322.06C826.013 318.911 828.204 315.113 829.618 310.667C831.173 306.128 831.95 300.988 831.95 295.245C831.95 287.557 830.678 280.934 828.133 275.377C825.588 269.819 821.701 265.559 816.47 262.595C811.381 259.631 805.019 258.149 797.385 258.149C789.892 258.149 783.53 259.584 778.3 262.456C773.21 265.327 769.322 269.495 766.636 274.96C763.95 280.425 762.607 287.094 762.607 294.967C762.607 300.802 763.314 305.989 764.728 310.528C766.283 314.974 768.545 318.772 771.514 321.921C774.483 324.978 778.088 327.34 782.329 329.007C786.711 330.581 791.73 331.369 797.385 331.369Z" fill="#10B981"/>
<path d="M797.809 246.534C809.595 246.534 819.571 248.534 827.715 252.558L828.472 252.931C836.235 256.837 842.14 262.288 846.164 269.286L846.56 269.966C850.589 277.038 852.596 285.284 852.596 294.689C852.596 301.599 851.455 308.007 849.169 313.905C846.879 319.812 843.372 324.969 838.653 329.373C834.07 333.689 828.281 337.056 821.3 339.483L821.294 339.485C814.304 341.821 806.191 342.984 796.961 342.984C787.732 342.984 779.687 341.821 772.837 339.484L772.831 339.482C765.99 337.054 760.272 333.686 755.69 329.371C751.113 325.06 747.679 319.997 745.39 314.185L745.386 314.174C743.242 308.37 742.174 302.012 742.174 295.106C742.174 285.028 744.382 276.321 748.82 269.004C753.258 261.689 759.628 256.113 767.911 252.277L767.914 252.275C776.334 248.441 786.304 246.534 797.809 246.534Z" stroke="#10B981"/>
<mask id="mask0_558_1319" style="mask-type:luminance" maskUnits="userSpaceOnUse" x="866" y="478" width="374" height="265">
<path d="M1108.12 478.511C1180.96 478.511 1240 537.555 1240 610.389V610.389C1240 683.223 1180.96 742.266 1108.12 742.266H998.266C925.432 742.266 866.388 683.223 866.388 610.389V610.389C866.388 537.555 925.432 478.511 998.266 478.511H1108.12Z" fill="white"/>
</mask>
<g mask="url(#mask0_558_1319)">
<path d="M1078.95 738.688C1079.22 730.821 1086.05 714.009 1093.92 714.009C1103.84 714.009 1111.39 714.009 1127.11 714.009C1189.35 714.009 1240 667.526 1240 610.404C1240 553.282 1189.35 506.771 1127.11 506.771L1096.55 507.286C1089.25 507.409 1084.65 499.465 1088.39 493.193V493.193C1092.09 486.991 1087.64 479.119 1080.41 479.098L893.498 478.568C891.401 478.568 889.365 478.76 887.328 479.145C885.291 479.502 883.315 480.052 881.398 480.794C879.481 481.509 877.654 482.388 875.947 483.461C874.209 484.505 872.622 485.715 871.154 487.062C869.687 488.409 868.369 489.865 867.231 491.46C866.063 493.027 865.104 494.703 864.296 496.463C863.517 498.222 862.918 500.036 862.498 501.906C862.109 503.775 861.899 505.672 861.899 507.568V713.212C861.899 715.137 862.109 717.006 862.498 718.875C862.918 720.744 863.517 722.559 864.296 724.318C865.104 726.077 866.063 727.754 867.231 729.321C868.369 730.915 869.687 732.372 871.154 733.719C872.622 735.066 874.209 736.275 875.947 737.32C877.654 738.392 879.481 739.272 881.398 740.014C883.315 740.729 885.291 741.278 887.328 741.663C889.365 742.021 891.401 742.213 893.468 742.213H1064.72C1072.59 742.213 1078.67 746.554 1078.95 738.688V738.688ZM1005.69 634.099C1004.73 633.989 1002.49 633.467 1002.31 633.44C990.742 630.346 978.793 623.674 967.07 626.193L943.573 631.241C942.675 631.515 941.746 631.598 940.818 631.46C939.859 631.323 939.021 631.021 938.242 630.498C937.463 630.004 936.834 629.371 936.385 628.602C935.936 627.832 935.726 627.007 935.696 626.128V595.285C935.696 594.406 935.936 593.608 936.385 592.811C936.834 592.041 937.463 591.409 938.242 590.914C939.021 590.42 939.859 590.09 940.818 589.952C941.746 589.842 942.675 589.897 943.573 590.172L966.998 594.877C978.794 597.246 990.695 590.427 1002.31 587.368C1002.49 587.313 1004.73 586.819 1005.69 586.681C1006.92 586.516 1008.12 586.434 1009.35 586.434C1012.79 586.434 1016.15 587.039 1019.32 588.248C1022.52 589.485 1025.37 591.189 1027.8 593.443C1030.25 595.697 1032.14 598.281 1033.46 601.223C1034.8 604.164 1035.46 607.215 1035.46 610.404C1035.46 613.565 1034.8 616.616 1033.46 619.558C1032.14 622.499 1030.25 625.083 1027.8 627.337C1025.37 629.591 1022.52 631.323 1019.32 632.533C1016.15 633.742 1012.79 634.347 1009.35 634.347C1008.12 634.347 1006.92 634.264 1005.69 634.099ZM1127.11 678.631C1110.36 678.631 1096.77 665.923 1096.77 650.247V610.39V570.534C1096.77 554.857 1110.36 542.149 1127.11 542.149C1168.12 542.149 1201.48 572.772 1201.48 610.404C1201.48 648.036 1168.12 678.631 1127.11 678.631Z" fill="#10B981"/>
</g>
</svg>
